<svg viewBox="0 0 55 55" fill="none" xmlns="http://www.w3.org/2000/svg">
<path d="M27.4998 13.5207C30.1582 13.5207 32.3123 15.6748 32.3123 18.3332C32.3123 20.9915 30.1582 23.1457 27.4998 23.1457C24.8415 23.1457 22.6873 20.9915 22.6873 18.3332C22.6873 15.6748 24.8415 13.5207 27.4998 13.5207ZM27.4998 34.1457C34.3061 34.1457 41.479 37.4915 41.479 38.9582V41.479H13.5207V38.9582C13.5207 37.4915 20.6936 34.1457 27.4998 34.1457ZM27.4998 9.1665C22.4353 9.1665 18.3332 13.2686 18.3332 18.3332C18.3332 23.3978 22.4353 27.4998 27.4998 27.4998C32.5644 27.4998 36.6665 23.3978 36.6665 18.3332C36.6665 13.2686 32.5644 9.1665 27.4998 9.1665ZM27.4998 29.7915C21.3811 29.7915 9.1665 32.8623 9.1665 38.9582V45.8332H45.8332V38.9582C45.8332 32.8623 33.6186 29.7915 27.4998 29.7915Z" fill="white"/>
</svg>
