<svg viewBox="0 0 55 55" fill="none" xmlns="http://www.w3.org/2000/svg">
<path d="M52.7082 18.3333C52.7082 20.8542 50.6457 22.9167 48.1248 22.9167C47.7123 22.9167 47.3228 22.8708 46.9561 22.7563L38.7978 30.8917C38.9123 31.2583 38.9582 31.6708 38.9582 32.0833C38.9582 34.6042 36.8957 36.6667 34.3748 36.6667C31.854 36.6667 29.7915 34.6042 29.7915 32.0833C29.7915 31.6708 29.8373 31.2583 29.9519 30.8917L24.1082 25.0479C23.7415 25.1625 23.329 25.2083 22.9165 25.2083C22.504 25.2083 22.0915 25.1625 21.7248 25.0479L11.2978 35.4979C11.4123 35.8646 11.4582 36.2542 11.4582 36.6667C11.4582 39.1875 9.39567 41.25 6.87484 41.25C4.354 41.25 2.2915 39.1875 2.2915 36.6667C2.2915 34.1458 4.354 32.0833 6.87484 32.0833C7.28734 32.0833 7.67692 32.1292 8.04359 32.2437L18.4936 21.8167C18.379 21.45 18.3332 21.0375 18.3332 20.625C18.3332 18.1042 20.3957 16.0417 22.9165 16.0417C25.4373 16.0417 27.4998 18.1042 27.4998 20.625C27.4998 21.0375 27.454 21.45 27.3394 21.8167L33.1832 27.6604C33.5498 27.5458 33.9623 27.5 34.3748 27.5C34.7873 27.5 35.1998 27.5458 35.5665 27.6604L43.7019 19.5021C43.5873 19.1354 43.5415 18.7458 43.5415 18.3333C43.5415 15.8125 45.604 13.75 48.1248 13.75C50.6457 13.75 52.7082 15.8125 52.7082 18.3333Z" fill="white"/>
</svg>
